<?xml version="1.0" standalone="no"?>
<svg version="1.0" xmlns="http://www.w3.org/2000/svg"
 width="96.000000pt" height="96.000000pt" viewBox="0 0 96.000000 96.000000"
 preserveAspectRatio="xMidYMid meet">

<g transform="translate(0.000000,96.000000) scale(0.100000,-0.100000)"
fill="#ffffff" stroke="none">
<path d="M440 860 c-11 -11 -20 -30 -20 -43 0 -17 -10 -28 -40 -41 -50 -22
-113 -93 -128 -144 -7 -22 -12 -100 -12 -174 l0 -134 -40 -39 c-24 -23 -40
-48 -40 -62 0 -23 1 -23 123 -23 l123 0 -4 -34 c-9 -74 81 -114 134 -60 20 20
25 33 22 60 l-4 34 123 0 c122 0 123 0 123 23 0 14 -16 39 -40 62 l-40 39 0
134 c0 74 -5 152 -12 174 -15 51 -78 122 -128 144 -30 13 -40 24 -40 41 0 28
-33 63 -60 63 -11 0 -29 -9 -40 -20z m128 -167 c63 -47 67 -60 70 -244 l3
-169 -160 0 -161 0 0 154 c0 85 5 167 11 183 14 37 47 72 84 89 40 19 119 12
153 -13z"/>
</g>
</svg>
