<?xml version="1.0" standalone="no"?>
<svg version="1.0" xmlns="http://www.w3.org/2000/svg"
 width="250.000000pt" height="250.000000pt" viewBox="0 0 250.000000 250.000000"
 preserveAspectRatio="xMidYMid meet">

<g transform="translate(0.000000,250.000000) scale(0.100000,-0.100000)"
fill="currentColor" stroke="none">
	<path d="M1078 2383 c-10 -11 -25 -73 -37 -153 -24 -151 -34 -180 -56 -180 -8
	0 -44 -13 -78 -29 l-63 -28 -65 47 c-111 81 -200 140 -211 140 -6 0 -62 -50
	-125 -112 -78 -77 -113 -119 -113 -135 0 -12 40 -79 89 -148 l88 -126 -35 -82
	c-19 -45 -39 -84 -43 -87 -5 -3 -73 -16 -151 -29 -87 -14 -150 -29 -160 -38
	-16 -14 -18 -36 -18 -173 0 -130 3 -160 15 -170 9 -7 84 -25 167 -39 l151 -27
	37 -85 37 -86 -47 -64 c-81 -111 -140 -200 -140 -211 0 -6 50 -62 112 -125 77
	-78 119 -113 135 -113 12 0 79 40 149 89 l127 90 36 -19 c20 -10 56 -24 80
	-31 26 -8 46 -21 52 -33 4 -12 18 -82 30 -156 12 -80 27 -142 37 -152 13 -16
	35 -18 172 -18 130 0 160 3 170 15 7 9 25 84 39 167 18 102 32 154 41 159 66
	34 154 68 164 62 6 -4 64 -44 129 -90 65 -46 128 -83 140 -83 16 0 58 35 135
	113 62 63 112 118 112 124 0 11 -23 46 -121 184 l-68 96 33 77 c19 43 38 82
	43 86 4 4 71 17 148 30 77 12 150 29 163 36 21 14 22 19 22 173 0 138 -2 160
	-17 173 -11 10 -73 25 -153 37 -74 12 -143 25 -153 29 -21 8 -89 160 -80 176
	4 6 44 64 90 129 46 65 83 128 83 140 0 16 -35 58 -113 135 -63 62 -118 112
	-124 112 -11 0 -46 -23 -184 -121 l-97 -69 -68 31 c-38 17 -76 34 -84 38 -10
	6 -23 56 -41 159 -14 83 -32 158 -39 167 -10 12 -41 15 -170 15 -137 0 -159
	-2 -172 -17z m292 -233 c14 -80 29 -151 33 -157 4 -7 27 -17 50 -24 23 -6 80
	-28 125 -50 98 -45 78 -50 235 62 l111 80 67 -67 68 -67 -65 -91 c-35 -50 -76
	-110 -90 -133 l-25 -42 29 -58 c16 -32 39 -88 51 -126 13 -37 30 -71 39 -76
	10 -4 81 -18 160 -31 l143 -23 -3 -96 -3 -95 -145 -26 c-80 -14 -150 -29 -157
	-33 -6 -4 -21 -38 -34 -75 -12 -37 -35 -93 -51 -125 -34 -68 -38 -54 73 -210
	l80 -111 -67 -67 -67 -68 -91 65 c-50 35 -109 75 -132 89 l-41 25 -84 -39
	c-46 -22 -103 -44 -126 -50 -23 -7 -45 -17 -49 -23 -4 -7 -19 -77 -34 -157
	l-26 -146 -95 -3 -96 -3 -23 138 c-12 76 -26 147 -30 158 -5 14 -27 27 -66 39
	-33 10 -85 31 -116 47 -32 16 -68 29 -81 29 -13 0 -75 -37 -143 -84 l-119 -85
	-69 68 -68 68 86 119 c51 70 86 129 86 143 0 13 -9 39 -21 57 -11 19 -34 71
	-49 115 -16 45 -31 84 -34 87 -3 2 -72 17 -153 31 l-148 27 -3 95 -3 96 138
	22 c76 13 148 29 160 37 13 8 28 35 37 67 8 29 29 80 46 112 16 33 30 69 30
	81 0 11 -38 74 -84 140 l-85 119 68 68 68 69 118 -86 c66 -47 129 -86 141 -86
	12 0 48 13 80 29 33 16 85 37 117 47 32 10 62 25 66 34 5 8 18 79 31 158 l23
	143 96 -3 95 -3 26 -145z"/>
	<path d="M1156 1640 c-63 -16 -153 -70 -197 -117 -22 -24 -55 -74 -72 -111
	-29 -61 -32 -76 -32 -163 0 -90 2 -99 37 -171 45 -91 103 -147 196 -191 61
	-29 76 -32 162 -32 86 0 101 3 162 32 93 44 151 100 196 191 35 72 37 81 37
	172 0 91 -2 100 -37 172 -68 136 -188 217 -336 224 -42 2 -94 -1 -116 -6z
	m228 -124 c105 -51 161 -144 161 -266 0 -123 -56 -214 -163 -267 -47 -23 -70
	-28 -132 -28 -62 0 -85 5 -132 28 -160 79 -215 278 -118 430 80 126 246 170
	384 103z"/>
</g>
</svg>
