<?xml version="1.0" standalone="no"?>
<svg version="1.0" xmlns="http://www.w3.org/2000/svg"
 width="300.000000pt" height="233.000000pt" viewBox="0 0 300.000000 233.000000"
 preserveAspectRatio="xMidYMid meet">

<g transform="translate(0.000000,233.000000) scale(0.100000,-0.100000)"
fill="#433f20" stroke="none">
<path d="M3 1165 c0 -643 2 -1158 4 -1143 l4 28 732 2 732 3 3 28 c3 23 8 27
33 27 26 0 29 -3 29 -30 l0 -30 730 0 730 0 0 1110 0 1110 -730 0 -730 0 0
-25 c0 -21 -5 -25 -30 -25 -25 0 -30 4 -30 25 l0 25 -734 0 -735 0 -4 33 c-2
17 -4 -494 -4 -1138z m1537 960 c0 -21 -5 -25 -30 -25 -25 0 -30 4 -30 25 0
21 5 25 30 25 25 0 30 -4 30 -25z m0 -120 c0 -21 -5 -25 -30 -25 -25 0 -30 4
-30 25 0 21 5 25 30 25 25 0 30 -4 30 -25z m0 -120 c0 -21 -5 -25 -30 -25 -25
0 -30 4 -30 25 0 21 5 25 30 25 25 0 30 -4 30 -25z m0 -118 c0 -31 -5 -35 -35
-29 -18 3 -25 11 -25 28 0 20 5 24 30 24 25 0 30 -4 30 -23z m-2 -124 c-2 -22
-8 -28 -28 -28 -20 0 -26 6 -28 28 -3 24 0 27 28 27 28 0 31 -3 28 -27z m0
-120 c-2 -22 -8 -28 -28 -28 -20 0 -26 6 -28 28 -3 24 0 27 28 27 28 0 31 -3
28 -27z m0 -120 c-2 -22 -9 -29 -30 -31 -25 -3 -28 0 -28 27 0 28 3 31 31 31
27 0 30 -3 27 -27z m-1358 -244 l0 -150 -27 3 -28 3 -3 148 -3 147 31 0 30 0
0 -151z m1358 124 c-2 -22 -9 -29 -30 -31 -25 -3 -28 0 -28 27 0 28 3 31 31
31 27 0 30 -3 27 -27z m1350 -120 l-3 -148 -27 -3 -28 -3 0 150 0 151 30 0 31
0 -3 -147z m-1350 0 c-2 -22 -9 -29 -30 -31 -25 -3 -28 0 -28 27 0 28 3 31 31
31 27 0 30 -3 27 -27z m0 -120 c-2 -22 -9 -29 -30 -31 -25 -3 -28 0 -28 27 0
28 3 31 31 31 27 0 30 -3 27 -27z m0 -120 c-2 -22 -9 -29 -30 -31 -25 -3 -28
0 -28 27 0 28 3 31 31 31 27 0 30 -3 27 -27z m0 -120 c-2 -22 -9 -29 -30 -31
-25 -3 -28 0 -28 27 0 28 3 31 31 31 27 0 30 -3 27 -27z m0 -120 c-2 -22 -9
-29 -30 -31 -25 -3 -28 0 -28 27 0 28 3 31 31 31 27 0 30 -3 27 -27z m0 -120
c-2 -22 -9 -29 -30 -31 -25 -3 -28 0 -28 27 0 28 3 31 31 31 27 0 30 -3 27
-27z m0 -120 c-2 -22 -9 -29 -30 -31 -25 -3 -28 0 -28 27 0 28 3 31 31 31 27
0 30 -3 27 -27z m790 -70 c-2 -22 -9 -29 -30 -31 -25 -3 -28 0 -28 27 0 28 3
31 31 31 27 0 30 -3 27 -27z m-790 -50 c-2 -22 -9 -29 -30 -31 -25 -3 -28 0
-28 27 0 28 3 31 31 31 27 0 30 -3 27 -27z m0 -120 c-2 -22 -9 -29 -30 -31
-25 -3 -28 0 -28 27 0 28 3 31 31 31 27 0 30 -3 27 -27z"/>
</g>
</svg>
