<?xml version="1.0" standalone="no"?>
<svg version="1.0" xmlns="http://www.w3.org/2000/svg"
 width="96.000000pt" height="96.000000pt" viewBox="0 0 96.000000 96.000000"
 preserveAspectRatio="xMidYMid meet">

<g transform="translate(0.000000,96.000000) scale(0.100000,-0.100000)"
fill="#000000" stroke="none">
<path d="M428 854 c-31 -16 -58 -61 -58 -96 0 -31 34 -85 59 -93 17 -5 21 -16
23 -68 3 -61 3 -61 38 -68 76 -16 104 -97 51 -150 -53 -53 -134 -25 -150 51
-6 29 -11 35 -31 35 -30 0 -38 -32 -19 -77 11 -28 10 -32 -23 -65 -30 -30 -38
-33 -56 -24 -62 33 -152 -25 -152 -99 0 -53 57 -110 110 -110 58 0 116 65 108
121 -4 22 3 36 32 64 33 32 40 35 64 25 36 -13 79 -13 111 2 23 10 29 8 64
-26 30 -29 37 -42 33 -65 -8 -56 50 -121 108 -121 53 0 110 57 110 110 0 74
-90 132 -152 99 -18 -9 -26 -6 -56 24 -32 33 -35 38 -24 62 29 64 -4 153 -70
188 -32 16 -38 24 -38 52 0 25 5 35 21 40 25 8 59 61 59 93 0 56 -57 113 -112
112 -13 -1 -35 -7 -50 -16z m86 -60 c31 -30 9 -84 -34 -84 -24 0 -50 26 -50
50 0 24 26 50 50 50 10 0 26 -7 34 -16z m-260 -560 c31 -30 9 -84 -34 -84 -24
0 -50 26 -50 50 0 10 7 26 16 34 8 9 24 16 34 16 10 0 26 -7 34 -16z m520 0
c31 -30 9 -84 -34 -84 -24 0 -50 26 -50 50 0 24 26 50 50 50 10 0 26 -7 34
-16z"/>
</g>
</svg>
