<?xml version="1.0" standalone="no"?>
<svg version="1.0" xmlns="http://www.w3.org/2000/svg"
 width="100.000000pt" height="100.000000pt" viewBox="0 0 100.000000 100.000000"
 preserveAspectRatio="xMidYMid meet">

<g transform="translate(0.000000,100.000000) scale(0.100000,-0.100000)"
fill="#000000" stroke="none">
<path d="M298 944 c-30 -16 -58 -61 -58 -94 0 -32 27 -78 56 -93 25 -13 25
-13 -55 -67 -120 -81 -126 -106 -46 -208 69 -88 96 -101 135 -62 28 28 25 51
-15 102 -31 41 -35 58 -15 58 4 0 24 -25 44 -55 l36 -55 0 -190 c0 -189 0
-191 25 -215 31 -32 59 -32 90 0 25 24 25 27 25 187 0 144 2 167 19 195 21 34
64 67 234 182 113 77 130 100 108 147 -12 28 -52 47 -78 37 -10 -3 -80 -48
-155 -100 -132 -90 -137 -93 -148 -72 -13 24 -16 22 34 40 58 21 73 50 81 151
6 79 5 88 -14 107 -43 43 -100 11 -102 -56 -2 -58 -12 -85 -38 -95 -20 -7 -22
-6 -16 9 26 60 7 121 -45 148 -36 19 -67 19 -102 -1z m99 -46 c29 -27 29 -65
1 -95 -27 -29 -65 -29 -95 -1 -29 27 -29 65 -1 95 27 29 65 29 95 1z m175 -54
c-4 -107 -5 -110 -64 -130 -78 -25 -82 -30 -56 -75 42 -76 49 -77 120 -27 206
145 248 171 263 158 8 -7 15 -18 15 -26 0 -7 -60 -54 -132 -104 -246 -167
-237 -153 -238 -388 0 -136 -2 -164 -15 -168 -8 -4 -22 -1 -30 6 -12 10 -15
46 -15 202 l0 189 -46 72 c-26 40 -51 75 -57 79 -12 7 -86 -41 -87 -56 0 -5
19 -33 42 -63 30 -40 38 -57 30 -65 -9 -9 -17 -7 -33 8 -32 29 -89 110 -89
127 0 29 149 122 251 156 l96 32 7 66 c8 73 12 86 29 80 8 -3 11 -28 9 -73z"/>
</g>
</svg>
