<?xml version="1.0" standalone="no"?>
<svg version="1.0" xmlns="http://www.w3.org/2000/svg"
 width="64.000000pt" height="64.000000pt" viewBox="0 0 64.000000 64.000000"
 preserveAspectRatio="xMidYMid meet">

<g transform="translate(0.000000,64.000000) scale(0.100000,-0.100000)"
fill="#000000" stroke="none">
<path d="M432 585 c-12 -25 -12 -25 -155 -25 -159 0 -187 -9 -187 -59 0 -51
20 -65 101 -69 41 -2 80 -9 87 -14 6 -6 12 -25 12 -43 0 -41 10 -45 106 -45
86 0 126 -16 149 -60 61 -118 -68 -230 -179 -155 -45 31 -92 32 -122 4 -31
-29 -101 -36 -142 -15 -57 30 -79 109 -46 165 24 41 52 55 119 61 65 5 81 23
26 28 -114 11 -205 -74 -187 -173 20 -107 171 -170 260 -110 20 14 41 25 46
25 5 0 30 -11 56 -25 141 -75 287 40 226 178 -16 36 -32 52 -74 76 -47 28 -62
31 -135 31 l-83 0 0 34 c0 50 -28 66 -112 66 -58 0 -69 3 -78 21 -22 41 -1 47
161 51 135 3 152 5 165 22 15 22 19 56 6 56 -5 0 -14 -11 -20 -25z"/>
<path d="M430 260 c0 -5 5 -10 11 -10 5 0 7 5 4 10 -3 6 -8 10 -11 10 -2 0 -4
-4 -4 -10z"/>
<path d="M142 224 c-11 -12 -10 -17 2 -30 15 -14 17 -14 32 0 14 14 14 18 0
31 -18 18 -18 18 -34 -1z"/>
<path d="M385 210 c3 -5 8 -10 11 -10 2 0 4 5 4 10 0 6 -5 10 -11 10 -5 0 -7
-4 -4 -10z"/>
<path d="M480 210 c0 -5 5 -10 11 -10 5 0 7 5 4 10 -3 6 -8 10 -11 10 -2 0 -4
-4 -4 -10z"/>
<path d="M260 190 c0 -5 7 -10 15 -10 8 0 15 5 15 10 0 6 -7 10 -15 10 -8 0
-15 -4 -15 -10z"/>
<path d="M310 190 c0 -5 5 -10 10 -10 6 0 10 5 10 10 0 6 -4 10 -10 10 -5 0
-10 -4 -10 -10z"/>
<path d="M435 160 c3 -5 8 -10 11 -10 2 0 4 5 4 10 0 6 -5 10 -11 10 -5 0 -7
-4 -4 -10z"/>
</g>
</svg>
