<?xml version="1.0" standalone="no"?>
<svg version="1.0" xmlns="http://www.w3.org/2000/svg"
 width="96.000000pt" height="96.000000pt" viewBox="0 0 96.000000 96.000000"
 preserveAspectRatio="xMidYMid meet">

<g transform="translate(0.000000,96.000000) scale(0.100000,-0.100000)"
fill="#000000" stroke="none">
<path d="M406 696 c-74 -44 -96 -128 -52 -200 l23 -39 -39 -35 c-21 -19 -40
-33 -41 -31 -2 2 -8 11 -15 20 -10 13 -9 23 4 48 22 45 12 97 -26 136 -26 25
-38 30 -80 30 -42 0 -54 -5 -80 -30 -38 -39 -48 -91 -26 -136 14 -28 14 -35 2
-48 -20 -23 -46 -77 -46 -96 0 -10 10 -15 30 -15 21 0 30 5 30 16 0 28 56 74
90 74 43 0 90 -47 90 -89 0 -28 3 -31 30 -31 20 0 30 5 30 15 0 36 41 95 80
115 50 25 90 25 140 0 39 -20 80 -79 80 -115 0 -10 10 -15 30 -15 27 0 30 3
30 31 0 42 47 89 90 89 34 0 90 -46 90 -74 0 -11 9 -16 30 -16 20 0 30 5 30
15 0 19 -26 73 -46 96 -12 13 -12 20 2 48 22 45 12 97 -26 136 -26 25 -38 30
-80 30 -42 0 -54 -5 -80 -30 -38 -39 -48 -91 -26 -136 13 -25 14 -35 4 -48 -7
-9 -13 -18 -15 -20 -1 -2 -20 12 -41 31 l-39 35 23 39 c30 49 30 95 2 146 -42
74 -130 98 -202 54z m135 -65 c20 -20 29 -39 29 -61 0 -43 -47 -90 -90 -90
-43 0 -90 47 -90 90 0 22 9 41 29 61 20 20 39 29 61 29 22 0 41 -9 61 -29z
m-321 -81 c11 -11 20 -29 20 -40 0 -26 -34 -60 -60 -60 -26 0 -60 34 -60 60 0
26 34 60 60 60 11 0 29 -9 40 -20z m600 0 c11 -11 20 -29 20 -40 0 -26 -34
-60 -60 -60 -11 0 -29 9 -40 20 -11 11 -20 29 -20 40 0 11 9 29 20 40 11 11
29 20 40 20 11 0 29 -9 40 -20z"/>
</g>
</svg>
