<?xml version="1.0" standalone="no"?>
<svg version="1.0" xmlns="http://www.w3.org/2000/svg"
 width="96.000000pt" height="96.000000pt" viewBox="0 0 96.000000 96.000000"
 preserveAspectRatio="xMidYMid meet">

<g transform="translate(0.000000,96.000000) scale(0.100000,-0.100000)"
fill="#000000" stroke="none">
<path d="M195 731 c-22 -10 -48 -27 -57 -37 -25 -29 -48 -89 -48 -126 0 -37
29 -107 52 -126 14 -11 10 -19 -36 -65 -33 -33 -56 -67 -64 -93 -18 -63 -16
-74 16 -74 24 0 29 5 39 43 15 57 47 95 97 118 52 24 100 24 152 0 50 -23 82
-61 97 -118 6 -24 17 -43 24 -43 7 0 18 -19 25 -42 16 -57 98 -139 154 -156
94 -28 169 -8 239 63 100 99 101 227 4 328 l-47 49 61 59 62 59 -69 66 c-74
72 -151 114 -206 114 -71 -1 -151 -56 -166 -117 -4 -12 -8 -23 -11 -23 -3 0
-27 20 -54 44 -61 55 -142 96 -188 96 -20 0 -54 -9 -76 -19z m150 -70 c28 -16
63 -43 79 -60 l30 -31 -34 -35 c-18 -19 -56 -46 -85 -61 -63 -33 -108 -28
-151 17 -40 41 -42 114 -4 154 49 53 94 57 165 16z m407 11 c40 -21 128 -91
128 -102 0 -4 -24 -26 -52 -47 -48 -37 -60 -41 -129 -46 -72 -6 -77 -5 -100
19 -34 37 -34 112 1 149 45 48 93 57 152 27z m-232 -155 c0 -7 12 -30 26 -51
l26 -38 -43 -46 c-24 -26 -44 -48 -45 -49 0 -2 -23 19 -51 46 l-51 49 38 27
c20 14 48 37 60 50 26 28 40 32 40 12z m280 -119 c132 -67 132 -249 0 -316
-24 -12 -60 -22 -80 -22 -20 0 -56 10 -80 22 -132 67 -132 249 0 316 24 12 60
22 80 22 20 0 56 -10 80 -22z"/>
<path d="M690 315 l0 -45 -45 0 c-43 0 -45 -1 -45 -30 0 -29 2 -30 45 -30 l45
0 0 -45 c0 -43 1 -45 30 -45 29 0 30 2 30 45 l0 45 45 0 c43 0 45 1 45 30 0
29 -2 30 -45 30 l-45 0 0 45 c0 43 -1 45 -30 45 -29 0 -30 -2 -30 -45z"/>
</g>
</svg>
