<?xml version="1.0" standalone="no"?>
<svg version="1.0" xmlns="http://www.w3.org/2000/svg"
 width="100.000000pt" height="100.000000pt" viewBox="0 0 100.000000 100.000000"
 preserveAspectRatio="xMidYMid meet">

<g transform="translate(0.000000,100.000000) scale(0.100000,-0.100000)"
fill="#000000" stroke="none" >
<path d="M126 653 c-69 -80 -126 -149 -126 -153 0 -4 57 -73 126 -153 l125
-147 350 0 350 0 24 25 25 24 0 251 0 251 -25 24 -24 25 -350 0 -350 0 -125
-147z m822 95 c17 -17 17 -479 0 -496 -9 -9 -99 -12 -347 -11 l-336 0 -105
125 c-58 68 -105 128 -105 134 0 6 47 66 105 134 l105 125 336 0 c248 1 338
-2 347 -11z"/>
<path d="M434 619 c-3 -6 18 -35 47 -65 l53 -54 -52 -53 c-41 -42 -50 -55 -40
-65 10 -10 23 -1 65 40 l53 52 53 -52 c42 -41 55 -50 65 -40 10 10 1 23 -40
65 l-52 53 54 55 c43 43 52 57 42 67 -10 10 -24 1 -67 -42 l-55 -54 -53 52
c-56 55 -62 58 -73 41z"/>
</g>
</svg>
