<?xml version="1.0" standalone="no"?>
<!DOCTYPE svg PUBLIC "-//W3C//DTD SVG 20010904//EN"
 "http://www.w3.org/TR/2001/REC-SVG-20010904/DTD/svg10.dtd">
<svg version="1.0" xmlns="http://www.w3.org/2000/svg"
 width="96.000000pt" height="96.000000pt" viewBox="0 0 96.000000 96.000000"
 preserveAspectRatio="xMidYMid meet">

<g transform="translate(0.000000,96.000000) scale(0.100000,-0.100000)"
fill="#000000" stroke="none">
<path d="M320 883 c-147 -78 -160 -281 -23 -372 79 -53 160 -54 241 -4 59 36
102 113 102 183 0 113 -92 210 -208 218 -48 3 -66 -1 -112 -25z m163 -47 c103
-43 128 -177 48 -257 -65 -65 -157 -65 -222 0 -124 123 13 325 174 257z"/>
<path d="M285 421 c-82 -21 -164 -88 -205 -170 -13 -27 -24 -71 -27 -116 -6
-77 1 -91 37 -80 16 5 20 15 20 54 0 101 53 191 137 233 42 20 67 24 203 28
l155 5 0 25 0 25 -145 2 c-80 0 -158 -2 -175 -6z"/>
<path d="M717 384 c-4 -4 -7 -36 -7 -70 l0 -63 -67 -3 c-65 -3 -68 -4 -68 -28
0 -24 3 -25 67 -28 l67 -3 3 -67 c3 -64 4 -67 28 -67 24 0 25 3 28 67 l3 67
67 3 c64 3 67 4 67 28 0 24 -3 25 -67 28 l-67 3 -3 67 c-3 59 -6 67 -23 70
-12 2 -24 0 -28 -4z"/>
</g>
</svg>
