<?xml version="1.0" standalone="no"?>
<svg version="1.0" xmlns="http://www.w3.org/2000/svg"
 width="96.000000pt" height="96.000000pt" viewBox="0 0 96.000000 96.000000"
 preserveAspectRatio="xMidYMid meet">

<g transform="translate(0.000000,96.000000) scale(0.100000,-0.100000)"
fill="#000000" stroke="none">
<path d="M370 884 c-308 -82 -412 -474 -186 -700 241 -240 651 -107 709 230
51 296 -230 548 -523 470z m275 -63 c76 -37 147 -111 183 -189 51 -110 31
-287 -42 -377 l-25 -30 -265 265 c-147 146 -266 268 -266 272 0 4 18 19 39 34
109 72 260 82 376 25z m-175 -357 l265 -265 -30 -25 c-90 -73 -267 -93 -377
-42 -171 80 -261 266 -213 443 16 62 66 155 82 155 5 0 127 -119 273 -266z"/>
</g>
</svg>
