<?xml version="1.0" standalone="no"?>
<svg version="1.0" xmlns="http://www.w3.org/2000/svg"
 width="64.000000pt" height="64.000000pt" viewBox="0 0 64.000000 64.000000"
 preserveAspectRatio="xMidYMid meet">

<g transform="translate(0.000000,64.000000) scale(0.100000,-0.100000)"
fill="#000000" stroke="none">
<path d="M193 542 c-58 -21 -112 -59 -141 -100 -27 -36 -44 -105 -36 -139 10
-43 50 -108 78 -126 21 -14 23 -22 19 -57 -6 -44 7 -52 50 -28 13 7 68 13 132
14 119 1 170 14 238 61 40 27 80 88 91 135 18 77 -45 178 -141 225 -75 36
-210 43 -290 15z m237 -80 c0 -4 -37 -44 -82 -89 l-83 -82 -52 15 c-29 9 -53
21 -53 28 0 7 57 40 128 74 133 63 142 67 142 54z m-38 -154 c-33 -69 -64
-128 -71 -132 -11 -7 -18 5 -38 69 -10 29 -6 34 76 118 47 48 87 83 89 79 1
-5 -24 -66 -56 -134z"/>
</g>
</svg>
