<?xml version="1.0" standalone="no"?>
<svg version="1.0" xmlns="http://www.w3.org/2000/svg"
 width="96.000000pt" height="96.000000pt" viewBox="0 0 96.000000 96.000000"
 preserveAspectRatio="xMidYMid meet">

<g transform="translate(0.000000,96.000000) scale(0.100000,-0.100000)"
fill="#000000" stroke="none">
<path d="M320 883 c-147 -78 -160 -281 -23 -372 79 -53 160 -54 241 -4 59 36
102 113 102 183 0 113 -92 210 -208 218 -48 3 -66 -1 -112 -25z m163 -47 c103
-43 128 -177 48 -257 -65 -65 -157 -65 -222 0 -124 123 13 325 174 257z"/>
<path d="M285 421 c-82 -21 -164 -88 -205 -170 -13 -27 -24 -71 -27 -116 -6
-77 1 -91 37 -80 16 5 20 15 20 54 0 101 53 191 137 233 42 20 67 24 203 28
l155 5 0 25 0 25 -145 2 c-80 0 -158 -2 -175 -6z"/>
<path d="M674 361 c-96 -58 -110 -183 -29 -261 30 -29 43 -34 92 -37 68 -5
111 16 143 69 29 47 27 134 -3 179 -43 65 -139 89 -203 50z m152 -55 c29 -29
34 -41 34 -82 0 -74 -12 -84 -48 -43 -136 156 -137 159 -58 159 30 0 45 -7 72
-34z m-86 -102 c78 -92 79 -104 12 -104 -84 0 -142 85 -112 164 5 14 14 26 19
26 5 0 41 -39 81 -86z"/>
</g>
</svg>
