<?xml version="1.0" standalone="no"?>
<svg version="1.0" xmlns="http://www.w3.org/2000/svg"
 width="64.000000pt" height="64.000000pt" viewBox="0 0 64.000000 64.000000"
 preserveAspectRatio="xMidYMid meet">

<g transform="translate(0.000000,64.000000) scale(0.100000,-0.100000)"
fill="#000000" stroke="none">
<path d="M255 528 c-130 -56 -225 -152 -225 -227 1 -57 51 -162 91 -189 31
-22 42 -23 124 -19 88 4 173 28 219 62 16 12 17 17 6 30 -7 8 -9 22 -6 32 5
11 0 23 -15 34 -21 15 -21 18 -5 40 9 13 16 26 16 30 0 4 -24 19 -54 34 -37
19 -61 25 -77 20 -47 -14 -68 -34 -75 -72 -8 -48 -20 -63 -49 -63 -33 0 -52
29 -58 90 -7 83 1 96 96 139 71 33 97 53 97 77 0 10 -39 2 -85 -18z m-160
-182 c-21 -32 -16 -68 13 -81 12 -5 22 -13 22 -18 0 -4 -6 -5 -12 -1 -29 16
-48 38 -48 56 0 22 29 82 37 75 2 -3 -3 -17 -12 -31z m346 -103 c8 -9 12 -25
11 -36 -2 -11 2 -23 9 -27 8 -6 2 -13 -18 -24 l-31 -15 -20 47 c-19 43 -20 48
-5 60 23 16 38 15 54 -5z m-58 -56 c22 -54 22 -53 -14 -66 -29 -10 -30 -9 -50
35 -23 56 -24 61 -1 67 39 10 48 6 65 -36z m-282 23 c10 0 52 -90 45 -97 -10
-11 -46 24 -65 65 -19 37 -19 44 -6 38 9 -3 21 -6 26 -6z m206 -49 c18 -42 19
-51 6 -55 -39 -15 -58 -6 -75 37 -10 23 -18 45 -18 49 0 6 21 12 56 17 5 0 19
-21 31 -48z m-94 12 c8 -16 18 -38 21 -50 7 -21 4 -23 -28 -23 -36 0 -52 17
-70 78 -7 20 -4 22 28 22 29 0 38 -5 49 -27z"/>
<path d="M370 520 c0 -31 13 -37 40 -20 12 7 12 12 -4 29 -26 29 -36 26 -36
-9z"/>
<path d="M476 534 c-11 -29 -6 -34 29 -34 39 0 44 9 17 33 -23 21 -38 21 -46
1z"/>
<path d="M99 493 c-26 -21 -52 -47 -59 -58 -7 -11 7 -2 31 20 24 22 55 48 69
57 14 9 20 17 15 17 -6 1 -31 -16 -56 -36z"/>
<path d="M574 505 c-4 -8 -12 -15 -20 -15 -24 0 -15 -19 12 -26 28 -7 44 7 44
39 0 21 -28 23 -36 2z"/>
<path d="M243 459 c-82 -38 -94 -57 -84 -132 9 -67 20 -82 54 -73 19 4 26 14
31 45 11 73 89 109 154 71 20 -12 31 -16 25 -9 -7 7 -13 23 -13 35 0 22 -46
64 -69 64 -7 0 -14 7 -17 15 -8 19 -7 19 -81 -16z m-33 -49 c0 -5 10 -10 23
-10 19 -1 20 -2 5 -11 -10 -5 -15 -17 -12 -27 5 -16 5 -16 -6 0 -6 10 -18 15
-28 12 -13 -5 -14 -4 -3 4 8 6 11 17 8 26 -4 9 -2 16 3 16 6 0 10 -4 10 -10z"/>
<path d="M420 470 c-13 -9 -11 -13 10 -30 25 -20 60 -27 60 -12 0 14 -31 52
-43 52 -7 0 -19 -5 -27 -10z"/>
<path d="M510 421 c0 -27 4 -31 26 -31 22 0 25 4 22 28 -2 19 -9 28 -25 30
-20 3 -23 -1 -23 -27z"/>
<path d="M556 349 c-3 -17 -6 -35 -6 -40 0 -13 24 -11 45 5 18 13 18 15 2 40
-23 34 -33 33 -41 -5z"/>
<path d="M470 358 c0 -23 18 -41 34 -35 9 4 16 16 16 27 0 15 -7 20 -25 20
-14 0 -25 -6 -25 -12z"/>
<path d="M495 280 c-12 -38 14 -52 49 -25 20 15 20 15 0 30 -26 20 -42 19 -49
-5z"/>
<path d="M560 230 c-13 -9 -12 -12 5 -25 24 -19 40 -14 40 11 0 22 -23 29 -45
14z"/>
<path d="M511 161 c-14 -25 -14 -61 -1 -61 6 0 13 7 16 15 4 8 15 15 26 15 14
0 19 6 16 23 -4 29 -43 35 -57 8z"/>
</g>
</svg>