<?xml version="1.0" standalone="no"?>
<svg version="1.0" xmlns="http://www.w3.org/2000/svg"
 width="64.000000pt" height="64.000000pt" viewBox="0 0 64.000000 64.000000"
 preserveAspectRatio="xMidYMid meet">

<g transform="translate(0.000000,64.000000) scale(0.100000,-0.100000)"
fill="#000000" stroke="none">
<path d="M328 614 c-16 -5 -18 -20 -18 -134 0 -87 -4 -130 -11 -132 -7 -2 -19
-23 -28 -47 -11 -28 -28 -49 -51 -63 -19 -12 -29 -15 -22 -8 14 17 16 60 2 60
-5 0 -10 -9 -10 -19 0 -11 -7 -27 -16 -35 -33 -34 -84 -8 -84 43 0 25 5 29 37
34 21 4 48 4 61 1 20 -6 22 -3 22 40 l0 46 -48 0 c-68 0 -92 -27 -92 -101 0
-30 5 -60 12 -67 9 -9 9 -12 -3 -12 -20 0 -59 -42 -59 -63 0 -26 17 -20 24 7
9 34 44 44 62 17 18 -26 48 -27 66 -3 12 16 51 42 63 42 12 0 4 -49 -10 -60
-17 -14 -22 -140 -5 -140 6 0 10 26 10 58 0 53 3 60 45 107 l45 50 45 -50 c42
-47 45 -54 45 -107 0 -32 5 -58 10 -58 17 0 12 126 -5 140 -14 11 -22 60 -10
60 12 0 51 -26 63 -42 18 -24 49 -23 64 2 15 24 31 25 52 4 21 -20 21 -64 1
-64 -8 0 -15 5 -15 10 0 6 -4 10 -10 10 -6 0 -10 -27 -10 -60 0 -33 4 -60 10
-60 6 0 10 18 10 40 0 29 4 40 15 40 11 0 15 -11 15 -40 0 -22 5 -40 10 -40 6
0 10 33 10 78 0 69 -3 81 -23 100 -13 12 -30 22 -37 22 -11 0 -11 3 -2 12 15
15 16 58 2 58 -5 0 -10 -9 -10 -19 0 -11 -7 -27 -16 -35 -35 -36 -87 -6 -82
48 l3 31 58 -3 c55 -4 57 -3 57 20 0 31 -39 68 -71 68 -43 0 -69 -38 -69 -101
0 -30 6 -61 13 -69 6 -7 -4 -4 -23 8 -23 14 -40 35 -51 62 -8 23 -21 45 -28
49 -8 5 -11 26 -9 57 l3 49 35 -2 c19 0 47 -4 62 -8 15 -4 39 -4 53 -1 21 5
25 12 25 46 0 22 -4 40 -10 40 -5 0 -10 -16 -10 -36 l0 -36 -42 7 c-24 3 -60
7 -81 8 l-38 2 3 60 3 60 35 -2 c76 -5 120 -15 120 -29 0 -8 5 -14 10 -14 6 0
10 12 10 28 0 26 -3 27 -47 29 -27 0 -64 3 -83 6 -19 3 -43 3 -52 1z m-138
-260 c0 -22 -3 -24 -14 -15 -11 9 -20 9 -35 2 -24 -13 -51 -14 -51 -2 0 20 33
41 66 41 30 0 34 -3 34 -26z m344 10 c31 -31 8 -46 -35 -23 -15 7 -24 7 -35
-2 -20 -16 -18 5 2 25 8 9 24 16 34 16 10 0 26 -7 34 -16z m-218 -67 c-7 -37
-56 -111 -56 -85 0 9 7 29 15 45 9 15 20 41 25 57 14 38 24 26 16 -17z m62
-84 c-2 -7 -14 3 -27 22 -14 21 -21 41 -17 51 5 13 11 8 27 -22 10 -21 18 -45
17 -51z m-226 -25 c-9 -9 -15 -9 -24 0 -9 9 -7 12 12 12 19 0 21 -3 12 -12z
m360 0 c-9 -9 -15 -9 -24 0 -9 9 -7 12 12 12 19 0 21 -3 12 -12z"/>
<path d="M387 556 c-28 -22 -13 -63 23 -63 36 0 51 41 23 63 -10 7 -20 13 -23
13 -3 0 -13 -6 -23 -13z m33 -26 c0 -5 -4 -10 -10 -10 -5 0 -10 5 -10 10 0 6
5 10 10 10 6 0 10 -4 10 -10z"/>
<path d="M110 290 c0 -5 5 -10 10 -10 6 0 10 5 10 10 0 6 -4 10 -10 10 -5 0
-10 -4 -10 -10z"/>
<path d="M150 290 c0 -5 5 -10 10 -10 6 0 10 5 10 10 0 6 -4 10 -10 10 -5 0
-10 -4 -10 -10z"/>
<path d="M470 290 c0 -5 5 -10 10 -10 6 0 10 5 10 10 0 6 -4 10 -10 10 -5 0
-10 -4 -10 -10z"/>
<path d="M510 290 c0 -5 5 -10 10 -10 6 0 10 5 10 10 0 6 -4 10 -10 10 -5 0
-10 -4 -10 -10z"/>
<path d="M113 256 c2 -6 14 -11 27 -11 13 0 25 5 27 11 2 6 -10 11 -27 11 -17
0 -29 -5 -27 -11z"/>
<path d="M473 256 c2 -6 14 -11 27 -11 13 0 25 5 27 11 2 6 -10 11 -27 11 -17
0 -29 -5 -27 -11z"/>
<path d="M70 130 c0 -5 -11 -10 -25 -10 -23 0 -25 -3 -25 -50 0 -27 5 -50 10
-50 6 0 10 18 10 40 0 29 4 40 15 40 11 0 15 -11 15 -40 0 -22 5 -40 10 -40 6
0 10 27 10 60 0 33 -4 60 -10 60 -5 0 -10 -4 -10 -10z"/>
</g>
</svg>
