<?xml version="1.0" standalone="no"?>
<svg version="1.0" xmlns="http://www.w3.org/2000/svg"
 width="64.000000pt" height="64.000000pt" viewBox="0 0 64.000000 64.000000"
 preserveAspectRatio="xMidYMid meet">

<g transform="translate(0.000000,64.000000) scale(0.100000,-0.100000)"
fill="#000000" stroke="none">
<path d="M190 305 l0 -74 -92 -3 -93 -3 -3 -99 c-2 -64 1 -103 9 -112 17 -21
601 -21 618 0 8 9 11 55 9 137 l-3 124 -92 3 -93 3 0 49 0 50 -130 0 -130 0 0
-75z m230 1 c0 -53 6 -56 106 -56 l74 0 0 -110 0 -110 -280 0 -280 0 0 85 0
85 74 0 c106 0 106 0 106 81 l0 69 100 0 100 0 0 -44z"/>
<path d="M304 267 c-11 -29 0 -102 16 -102 19 0 22 106 3 112 -7 3 -16 -2 -19
-10z"/>
</g>
</svg>