<?xml version="1.0" standalone="no"?>
<svg version="1.0" xmlns="http://www.w3.org/2000/svg"
 width="51.000000pt" height="51.000000pt" viewBox="0 0 51.000000 51.000000"
 preserveAspectRatio="xMidYMid meet">

<g transform="translate(0.000000,51.000000) scale(0.100000,-0.100000)"
fill="#000000" stroke="none">
<path d="M293 453 c-19 -7 -16 -27 7 -53 19 -22 20 -24 2 -54 -15 -26 -26 -32
-64 -36 -25 -3 -52 -11 -60 -18 -12 -10 -20 -4 -47 33 -18 25 -39 45 -46 45
-21 0 -62 -68 -75 -123 -11 -51 -8 -67 15 -67 11 0 13 -13 10 -59 -2 -43 0
-61 10 -65 18 -7 25 3 25 35 0 15 3 34 6 43 11 29 24 17 24 -23 0 -21 6 -44
14 -50 19 -16 28 0 25 47 -3 59 0 72 17 72 13 0 15 7 11 34 -4 25 -1 39 12 50
10 9 21 16 24 16 4 0 7 -49 7 -110 l0 -109 38 2 37 2 5 115 c4 91 9 121 24
143 l19 28 24 -23 c24 -23 25 -25 19 -146 -6 -114 -5 -123 11 -120 12 2 19 14
21 38 1 19 5 42 8 50 8 21 22 -14 23 -58 1 -26 5 -33 19 -30 14 3 17 13 15 60
-1 49 1 57 19 61 18 5 19 11 13 49 -12 75 -25 93 -70 96 -47 4 -73 26 -104 87
-12 25 -23 45 -24 44 -1 0 -8 -3 -14 -6z m-156 -230 c-3 -10 -5 -4 -5 12 0 17
2 24 5 18 2 -7 2 -21 0 -30z m-87 11 c0 -8 -5 -12 -10 -9 -6 4 -8 11 -5 16 9
14 15 11 15 -7z m425 6 c3 -5 1 -10 -4 -10 -6 0 -11 5 -11 10 0 6 2 10 4 10 3
0 8 -4 11 -10z"/>
<path d="M399 394 c-9 -11 -10 -20 -3 -32 15 -23 29 -25 48 -7 12 12 13 21 6
36 -13 23 -33 25 -51 3z"/>
<path d="M224 365 c-4 -8 -3 -22 0 -31 8 -21 50 -14 54 10 6 31 -43 50 -54 21z"/>
</g>
</svg>