<?xml version="1.0" standalone="no"?>
<svg version="1.0" xmlns="http://www.w3.org/2000/svg"
 width="50.000000pt" height="50.000000pt" viewBox="0 0 50.000000 50.000000"
 preserveAspectRatio="xMidYMid meet">

<g transform="translate(0.000000,50.000000) scale(0.100000,-0.100000)"
fill="#000000" stroke="none">
<path d="M250 440 c0 -5 5 -10 10 -10 6 0 10 5 10 10 0 6 -4 10 -10 10 -5 0
-10 -4 -10 -10z"/>
<path d="M208 390 c-9 -5 -19 -29 -23 -53 -11 -73 -14 -77 -48 -77 -18 0 -43
-3 -56 -7 -22 -6 -23 -9 -17 -70 4 -35 9 -77 13 -93 l5 -30 169 0 c99 0 170 4
174 10 3 5 9 47 12 93 6 82 5 84 -18 90 -13 4 -38 7 -55 7 -31 0 -32 2 -43 61
-6 34 -12 64 -15 66 -10 10 -82 13 -98 3z m67 -24 c17 7 21 -1 29 -58 l7 -48
-49 0 c-46 0 -50 2 -55 28 -7 38 3 82 19 82 8 0 11 -7 8 -17 -2 -10 1 -7 8 6
7 13 14 19 16 13 2 -6 9 -9 17 -6z m-157 -138 c9 -9 12 -9 12 2 0 13 2 13 10
0 6 -10 10 -11 10 -3 0 16 122 16 133 -1 5 -8 9 -8 15 0 4 6 31 11 61 10 43
-1 55 -4 57 -18 1 -10 -3 -18 -9 -18 -8 0 -7 -4 2 -9 9 -6 12 -19 7 -42 -4
-19 -7 -41 -7 -50 0 -14 -19 -16 -152 -15 -128 1 -152 3 -152 16 0 8 -3 17 -6
20 -13 11 -18 70 -6 70 8 0 8 3 -2 9 -8 5 -11 16 -8 25 8 19 19 20 35 4z"/>
<path d="M201 173 c-1 -36 -15 -44 -26 -15 -6 16 -7 16 -19 0 -15 -20 -26 -14
-26 15 0 11 -3 18 -6 15 -8 -8 7 -78 16 -78 5 0 12 10 16 22 l6 21 18 -23 18
-24 7 36 c4 20 5 43 2 50 -3 7 -6 -2 -6 -19z"/>
<path d="M317 194 c-10 -11 -9 -74 2 -74 12 0 21 52 12 68 -4 7 -10 9 -14 6z"/>
<path d="M366 168 c-5 -26 -9 -30 -16 -18 -5 8 -10 10 -10 4 0 -5 6 -18 13
-29 13 -16 15 -14 21 25 8 51 2 65 -8 18z"/>
<path d="M250 150 c0 -22 5 -40 10 -40 6 0 10 18 10 40 0 22 -4 40 -10 40 -5
0 -10 -18 -10 -40z"/>
<path d="M354 368 l-19 -23 23 19 c21 18 27 26 19 26 -2 0 -12 -10 -23 -22z"/>
<path d="M120 326 c0 -2 8 -10 18 -17 15 -13 16 -12 3 4 -13 16 -21 21 -21 13z"/>
<path d="M375 320 c-16 -7 -17 -9 -3 -9 9 -1 20 4 23 9 7 11 7 11 -20 0z"/>
</g>
</svg>