<?xml version="1.0" standalone="no"?>
<svg version="1.0" xmlns="http://www.w3.org/2000/svg"
 width="100.000000pt" height="100.000000pt" viewBox="0 0 100.000000 100.000000"
 preserveAspectRatio="xMidYMid meet">

<g transform="translate(0.000000,100.000000) scale(0.100000,-0.100000)"
fill="currentColor" stroke="none">
<path d="M425 930 c-16 -26 14 -30 241 -30 l234 0 0 -400 0 -399 -137 -3
c-115 -3 -138 -6 -138 -18 0 -13 24 -15 155 -15 l155 0 0 435 0 435 -252 3
c-163 1 -254 -1 -258 -8z"/>
<path d="M449 831 c-20 -20 -29 -39 -29 -61 0 -43 47 -90 90 -90 43 0 90 47
90 90 0 22 -9 41 -29 61 -40 39 -82 39 -122 0z m95 -27 c31 -30 9 -84 -34 -84
-24 0 -50 26 -50 50 0 24 26 50 50 50 10 0 26 -7 34 -16z"/>
<path d="M744 769 c-3 -6 6 -24 21 -39 l28 -29 -74 -3 c-58 -2 -74 -6 -74 -18
0 -12 16 -16 74 -18 l74 -3 -29 -30 c-22 -23 -25 -32 -16 -41 10 -10 24 -1 64
40 l53 52 -50 50 c-52 52 -60 57 -71 39z"/>
<path d="M222 662 c-10 -10 -33 -44 -51 -76 -37 -65 -36 -100 4 -118 35 -16
68 2 96 51 21 38 39 53 39 33 0 -13 -49 -130 -76 -184 l-24 -48 -55 0 c-42 0
-60 -5 -75 -20 -25 -25 -25 -55 0 -80 17 -17 33 -20 101 -20 92 0 111 7 129
50 7 16 15 30 19 29 3 0 43 -49 89 -110 63 -83 88 -109 106 -109 25 0 56 28
56 51 0 8 -34 70 -76 139 l-76 124 28 57 27 58 39 -34 c34 -32 44 -35 98 -35
47 0 64 4 80 20 42 42 9 100 -57 100 -30 0 -45 9 -94 55 -76 73 -107 85 -219
85 -74 0 -93 -3 -108 -18z m215 -33 c15 -5 55 -37 88 -69 53 -52 65 -59 105
-62 32 -2 45 -7 45 -18 0 -11 -14 -16 -49 -18 -47 -3 -51 -1 -102 49 l-52 52
-36 -79 c-56 -120 -57 -109 28 -244 76 -120 87 -145 64 -138 -17 6 -227 279
-228 296 0 7 16 51 35 99 19 48 35 91 35 95 0 4 -22 8 -49 8 -48 0 -50 -1 -80
-50 -30 -49 -44 -59 -56 -40 -6 10 3 31 42 93 l23 37 79 0 c44 0 92 -5 108
-11z m-144 -300 c6 -10 2 -26 -13 -52 l-22 -38 -77 3 c-60 2 -76 6 -76 18 0
11 15 16 63 18 61 3 63 4 79 38 17 35 30 39 46 13z"/>
</g>
</svg>
