<?xml version="1.0" standalone="no"?>
<svg version="1.0" xmlns="http://www.w3.org/2000/svg"
 width="51.000000pt" height="51.000000pt" viewBox="0 0 51.000000 51.000000"
 preserveAspectRatio="xMidYMid meet">

<g transform="translate(0.000000,51.000000) scale(0.100000,-0.100000)"
fill="currentColor" stroke="none">
<path d="M286 489 c-11 -11 -14 -19 -8 -19 6 0 14 5 17 10 4 7 13 7 26 0 15
-9 19 -7 19 6 0 10 -3 14 -7 11 -3 -4 -11 -3 -17 2 -7 5 -19 1 -30 -10z"/>
<path d="M346 464 c-8 -21 -8 -39 1 -30 8 7 15 46 9 46 -2 0 -7 -7 -10 -16z"/>
<path d="M261 426 c-16 -19 -11 -46 12 -60 25 -16 52 4 52 40 0 24 -5 30 -26
32 -14 2 -31 -4 -38 -12z"/>
<path d="M154 406 c-9 -23 -1 -48 19 -60 25 -16 52 4 52 40 0 25 -4 29 -33 32
-22 2 -34 -2 -38 -12z"/>
<path d="M338 370 c-37 -22 -16 -60 31 -60 27 0 50 -31 41 -55 -14 -32 -11
-110 3 -130 22 -30 37 -8 37 53 0 39 7 70 20 95 12 21 18 47 15 57 -10 31
-114 60 -147 40z"/>
<path d="M110 343 c-43 -16 -100 -97 -82 -115 7 -7 17 0 31 23 l21 34 0 -40
c0 -32 6 -46 30 -67 34 -29 39 -67 17 -121 -15 -36 -12 -57 9 -57 34 0 62 119
41 175 -6 19 0 22 80 39 49 9 97 20 108 22 11 3 -1 -10 -27 -29 -26 -19 -45
-37 -41 -40 3 -4 25 9 48 28 34 28 41 40 37 60 -5 30 -16 31 -137 5 -49 -10
-91 -17 -93 -15 -2 1 0 14 4 29 5 23 11 26 53 26 47 0 81 13 68 26 -4 4 -34 6
-67 5 -38 -1 -60 2 -60 8 0 12 -15 13 -40 4z"/>
<path d="M323 293 c9 -2 23 -2 30 0 6 3 -1 5 -18 5 -16 0 -22 -2 -12 -5z"/>
<path d="M253 283 c9 -2 25 -2 35 0 9 3 1 5 -18 5 -19 0 -27 -2 -17 -5z"/>
</g>
</svg>
